<?xml version="1.0" encoding="utf-8"?>
<!-- Generator: Adobe Illustrator 17.0.0, SVG Export Plug-In . SVG Version: 6.00 Build 0)  -->
<!DOCTYPE svg PUBLIC "-//W3C//DTD SVG 1.1//EN" "http://www.w3.org/Graphics/SVG/1.1/DTD/svg11.dtd">
<svg version="1.1" id="Layer_1" xmlns="http://www.w3.org/2000/svg" xmlns:xlink="http://www.w3.org/1999/xlink" x="0px" y="0px"
	 width="400px" height="214px" viewBox="0 0 400 214" enable-background="new 0 0 400 214" xml:space="preserve">
<g>
	<path fill="#FEDB29" d="M75.895,91.563c-0.353,3.279-0.563,6.503-0.631,9.675c-0.068,3.17-0.306,5.858-0.712,8.065
		c-0.407,2.207-0.503,3.893-0.289,5.057c0.035,0.293,0.175,0.686,0.419,1.178c0.245,0.492,0.389,0.921,0.433,1.288
		c0.17,0.798,0.524,1.278,1.064,1.436c-0.352,0.785-0.793,1.303-1.321,1.552c-0.529,0.25-0.863,0.717-1.005,1.404
		c-0.294,0.035-0.561-0.026-0.803-0.183c-0.242-0.157-0.583-0.21-1.023-0.157c-0.367,0.043-0.507,0.116-0.42,0.218
		c0.087,0.101,0.253,0.248,0.499,0.443c-1.646-0.697-2.936-1.381-3.872-2.05c-0.935-0.669-1.635-1.386-2.098-2.15
		c-0.464-0.762-0.78-1.543-0.949-2.342l-0.509-2.395c-0.035-0.293-0.144-0.745-0.33-1.355c-0.184-0.611-0.197-1.187-0.038-1.726
		c0.119-1.503,0.157-3.665,0.119-6.489c-0.039-2.822,0.096-5.741,0.406-8.754c0.31-3.014,0.639-5.248,0.986-6.703
		c0.347-1.455,0.475-2.252,0.384-2.39l-0.092-0.771c-0.246-0.193-0.337-0.331-0.272-0.414c0.064-0.082-0.124-0.097-0.564-0.044
		c-0.147,0.017-0.684,0.193-1.612,0.528c-0.928,0.333-2.054,0.709-3.381,1.129c-1.327,0.419-2.665,0.894-4.016,1.428
		c-1.35,0.533-2.549,1.085-3.597,1.657c-0.414,0.272-0.907,0.666-1.477,1.181c-0.571,0.514-0.932,1.078-1.082,1.692
		c-0.359,1.978-0.481,4.076-0.365,6.293c0.116,2.219,0.174,4.259,0.172,6.119c-0.129,0.164-0.167,0.467-0.115,0.906
		c0.053,0.44,0.073,0.922,0.061,1.445c-0.115,0.907-0.427,1.874-0.937,2.901c-0.51,1.028-0.611,1.896-0.303,2.604
		c-0.426,0.795-0.72,1.611-0.88,2.449s-0.27,1.632-0.33,2.383c-0.047,0.228-0.374,0.918-0.98,2.07
		c-0.607,1.152-1.315,2.389-2.124,3.714c-0.809,1.325-1.664,2.58-2.564,3.766c-0.9,1.187-1.791,1.832-2.67,1.937
		c-0.359,0.118-0.714,0.104-1.065-0.04c-0.352-0.144-0.675-0.199-0.969-0.164c-1.238,0.223-2.28,0.069-3.125-0.464
		c-0.845-0.532-1.574-1.189-2.188-1.971c-0.615-0.783-1.066-1.603-1.354-2.462c-0.288-0.858-0.468-1.581-0.538-2.168
		c-0.126-0.431-0.179-1.188-0.159-2.27c0.02-1.08,0.02-2.178-0.002-3.292c-0.022-1.114,0.007-2.123,0.086-3.024l0.117-1.354
		l-0.745-4.375l-0.714-0.362c-0.244,1.071-0.772,2.102-1.584,3.092c-0.813,0.99-1.464,1.923-1.954,2.799
		c-0.379,0.567-0.716,1.332-1.009,2.297c-0.294,0.965-0.747,2.005-1.358,3.12c-0.047,0.228-0.04,0.432,0.018,0.611
		c0.059,0.179,0.1,0.379,0.127,0.598c-0.508,0.73-1.283,2.033-2.324,3.905c-1.041,1.874-2.322,3.775-3.84,5.704
		c-1.518,1.93-2.946,3.532-4.282,4.807c-1.336,1.277-2.549,2.017-3.642,2.222c-0.367,0.043-0.509,0.096-0.427,0.161
		c0.082,0.065-0.056,0.157-0.413,0.274c-1.899,0.301-3.553-0.154-4.963-1.362c-1.409-1.207-2.234-2.504-2.474-3.889l-0.145-1.211
		c-0.079-0.66-0.113-1.419-0.104-2.276c0.009-0.857-0.002-1.73-0.033-2.619c-0.031-0.889-0.009-1.636,0.068-2.24
		c0.089-1.127,0.226-2.148,0.415-3.063s0.34-1.826,0.455-2.733c0.524-1.849,1.114-3.76,1.771-5.737
		c0.657-1.976,1.157-4.025,1.498-6.15c0.121-0.238,0.266-0.423,0.437-0.555c0.17-0.131,0.32-0.28,0.449-0.444
		c0.261-0.924,0.426-2.042,0.493-3.351c0.067-1.31,0.603-2.434,1.607-3.373c0.071-1.273,0.377-2.612,0.916-4.016
		c0.539-1.404,1.138-2.778,1.796-4.121c0.658-1.344,1.343-2.616,2.056-3.818c0.712-1.201,1.264-2.345,1.655-3.434
		c0.284-0.109,0.608-0.203,0.971-0.283c0.363-0.08,0.649-0.17,0.86-0.271c0.341-0.263,0.499-0.505,0.472-0.725l0.109-0.013
		c0.138-0.091,0.244-0.141,0.317-0.15c0.578-0.144,1.359-0.143,2.343,0c0.985,0.142,1.691,0.448,2.119,0.919l0.677,0.533
		c0.206,0.162,0.326,0.389,0.361,0.683c0.026,0.22-0.158,1.172-0.552,2.856c-0.394,1.685-0.851,3.153-1.372,4.405
		c-1.002,2.203-1.977,4.329-2.922,6.376c-0.946,2.047-1.644,3.991-2.095,5.832c-0.364,1.308-0.852,2.836-1.462,4.583
		c-0.61,1.746-1.283,3.594-2.017,5.543c-0.708,2.168-1.287,4.338-1.734,6.512c-0.447,2.174-1.021,4.381-1.722,6.623
		c0.083,0.065,0.413,0.026,0.991-0.118c0.294-0.035,0.766-0.444,1.416-1.228c0.65-0.785,1.156-1.534,1.517-2.246
		c0.565-0.886,1.27-1.826,2.12-2.82c0.848-0.995,1.587-1.976,2.215-2.943c0.775-0.985,1.336-2.057,1.682-3.214
		c0.346-1.158,0.8-2.179,1.364-3.066c0.202-0.173,0.413-0.273,0.634-0.299c0.22-0.026,0.399-0.083,0.537-0.175
		c1.791-2.446,3.17-4.304,4.134-5.572c0.965-1.269,2.14-2.022,3.525-2.262c0.285-0.108,0.929-0.166,1.933-0.175
		c1.004-0.008,1.821,0.136,2.451,0.434c0.795,0.425,1.472,1.108,2.03,2.045c0.559,0.939,0.993,1.928,1.304,2.97
		c0.31,1.042,0.487,2.062,0.533,3.061c0.045,1,0.115,1.902,0.212,2.71l0.751,3.482c0.396-0.419,0.817-1.102,1.262-2.047
		c0.445-0.947,0.847-1.943,1.206-2.99c0.359-1.048,0.58-2.153,0.665-3.316c0.084-1.164,0.078-2.15-0.019-2.956
		c-0.009-0.074,0.09-0.178,0.297-0.315c0.207-0.135,0.339-0.282,0.394-0.437c-0.037-1.558-0.149-3.126-0.338-4.704
		c-0.188-1.577-0.411-3.132-0.668-4.663c0.71-0.904,1.087-1.804,1.128-2.702c-0.044-0.366-0.196-0.869-0.459-1.508
		c-0.262-0.638-0.314-1.227-0.155-1.767c0.021-0.449,0.172-1.044,0.456-1.785c0.283-0.741,0.615-1.393,0.994-1.959
		c0.387-0.493,0.922-1.003,1.603-1.531c0.681-0.528,1.201-0.85,1.559-0.967c0.367-0.043,0.543,0.029,0.528,0.216
		c-0.014,0.188,0.161,0.26,0.528,0.217c0.44-0.052,1.044-0.292,1.812-0.719c0.768-0.425,1.509-0.756,2.226-0.992
		c0.992-0.416,2.17-0.835,3.534-1.258c1.363-0.423,2.675-0.803,3.938-1.14c1.261-0.337,2.365-0.599,3.31-0.785
		c0.945-0.188,1.492-0.289,1.637-0.306c0.441-0.053,0.86,0.027,1.257,0.24c0.398,0.213,0.743,0.302,1.036,0.267
		c0.44-0.053,0.544-0.121,0.31-0.205c-0.233-0.084-0.129-0.152,0.311-0.205c0.359-0.117,1.05-0.088,2.075,0.088
		c1.026,0.175,1.951,0.287,2.775,0.338c1.05,0.693,2.194,1.86,3.431,3.498c1.237,1.638,1.958,3.003,2.163,4.095
		C76.326,86.135,76.247,88.284,75.895,91.563z M77.91,63.084c-0.277,1.112-1.108,1.788-2.492,2.028
		c-0.505,0.135-1.11,0.057-1.814-0.23c-0.402-0.249-0.849-0.568-1.342-0.957c-0.492-0.386-0.966-0.926-1.42-1.615
		c-0.373-0.626-0.84-1.425-1.402-2.401c-0.563-0.974-0.866-1.645-0.91-2.011c-0.035-0.293,0.07-0.976,0.313-2.047
		c0.245-1.071,0.425-2.06,0.54-2.966c0.85,0.271,1.862,0.484,3.034,0.642c1.172,0.157,2.221,0.368,3.144,0.629
		c0.507,1.131,1.01,2.075,1.51,2.833c0.499,0.759,0.815,1.689,0.946,2.79C78.223,60.87,78.187,61.971,77.91,63.084z"/>
	<path fill="#FEDB29" d="M130.086,103.234c-0.129,0.164-0.107,0.348,0.066,0.55c0.173,0.203,0.227,0.344,0.162,0.427
		c-0.129,0.165-0.277,0.332-0.442,0.5c-0.166,0.169-0.31,0.372-0.43,0.609c0.238,0.121,0.539,0.158,0.907,0.115l-0.097,0.122
		c-0.194,0.248-0.332,0.339-0.414,0.274c-0.194,0.246-0.269,0.552-0.225,0.919c0.043,0.367-0.1,0.719-0.432,1.056
		c0.182,0.276,0.272,0.563,0.27,0.861c-0.001,0.298,0.126,0.58,0.38,0.847c-0.257,0.329-0.536,0.641-0.836,0.938
		c-0.3,0.295-0.459,0.668-0.481,1.117c-0.232,0.548-0.709,1.071-1.431,1.566c-0.722,0.496-1.273,1.027-1.652,1.592
		c-0.349,0.191-0.691,0.605-1.024,1.238c-0.334,0.636-0.557,1.109-0.668,1.42c-0.724,0.16-1.552,0.242-2.482,0.24
		c-0.931-0.001-1.579,0.021-1.946,0.064c-0.294,0.035-0.804-0.033-1.532-0.208c-0.727-0.173-1.503-0.433-2.325-0.783
		c-0.823-0.348-1.554-0.707-2.194-1.078c-0.639-0.37-1.009-0.66-1.108-0.872c-1-1.517-1.953-3.115-2.86-4.792
		c-0.907-1.678-1.571-3.348-1.993-5.008c-0.425-1.066-0.767-2.531-1.027-4.398c-0.259-1.866-0.523-3.603-0.788-5.208
		c-0.156-0.056-0.203-0.143-0.143-0.262c0.061-0.119,0.013-0.206-0.142-0.262c-1.266,1.863-2.607,4.033-4.023,6.508
		c-1.416,2.476-2.785,4.722-4.107,6.741c-0.064,0.081-0.034,0.338,0.092,0.77c-0.4,1.015-0.818,2.033-1.255,3.051
		c-0.437,1.02-0.969,2.013-1.598,2.982c-0.434,0.722-1.055,1.596-1.863,2.622c-0.807,1.026-1.353,1.594-1.638,1.702
		c-0.367,0.044-0.719-0.101-1.056-0.432c-0.338-0.331-0.649-0.443-0.933-0.335c-0.44,0.052-0.562,0.123-0.366,0.211
		c0.197,0.088,0.112,0.154-0.255,0.198c-0.651,0.153-1.23-0.02-1.736-0.518c-0.505-0.498-0.927-1.062-1.262-1.691
		c-0.335-0.63-0.615-1.267-0.841-1.91c-0.226-0.642-0.38-0.996-0.462-1.061c-0.237-0.12-0.486-0.332-0.745-0.637
		c-0.259-0.302-0.457-0.707-0.592-1.213c-0.035-0.292,0.009-1.172,0.132-2.638c0.123-1.466,0.155-2.753,0.097-3.863
		c0.232-0.548,0.439-1.15,0.622-1.803c0.182-0.655,0.316-1.248,0.401-1.778c0.124-0.833,0.147-1.729,0.07-2.688
		c-0.077-0.957-0.054-1.854,0.07-2.687c0.668-3.13,1.491-6.838,2.467-11.121c0.977-4.284,1.967-8.457,2.971-12.52
		c-0.027-0.22-0.085-0.548-0.173-0.985c-0.09-0.436-0.161-0.873-0.214-1.314c0.462-0.502,0.937-1.041,1.425-1.62
		c0.489-0.58,0.945-0.969,1.368-1.168c0.337,0.332,0.692,0.661,1.067,0.989c0.374,0.328,0.775,0.726,1.203,1.195
		c0.193-0.246,0.287-0.554,0.28-0.925c-0.007-0.373-0.064-0.699-0.173-0.985c0.402,0.251,0.841,0.495,1.316,0.735
		c0.475,0.241,1.015,0.4,1.62,0.478c0.034,0.292,0.017,0.611-0.054,0.955c-0.07,0.342,0.022,0.647,0.277,0.915l0.11-0.013
		c0.147-0.018,0.236-0.047,0.268-0.088c0.032-0.041,0.155-0.111,0.365-0.212l0.255,1.197c0.117,0.358,0.071,0.754-0.137,1.189
		s-0.356,0.916-0.441,1.448c-0.033,0.97-0.046,2.107-0.04,3.409c0.007,1.3-0.034,2.515-0.123,3.642
		c0.044,0.366,0.005,0.669-0.115,0.906l-0.362,0.713c-0.385,1.758-0.412,3.398-0.083,4.921c0.388-0.493,0.779-1.116,1.173-1.87
		c0.394-0.754,0.861-1.516,1.401-2.288c0.54-0.771,1.048-1.502,1.524-2.192c0.475-0.689,0.994-1.178,1.554-1.468
		c0.487-0.282,1.025-0.457,1.612-0.527c0.587-0.07,1.189-0.329,1.805-0.774c0.403,0.25,0.71,0.491,0.924,0.726
		c0.215,0.235,0.412,0.49,0.594,0.767c0.276-0.182,0.497-0.358,0.663-0.527c0.166-0.168,0.428-0.311,0.786-0.428
		c0.293-0.035,0.766,0.188,1.419,0.668c0.652,0.48,1.221,0.877,1.705,1.192l0.013,0.11c0.009,0.073-0.051,0.192-0.181,0.356
		c0.018,0.147,0.122,0.246,0.314,0.298c0.192,0.052,0.325,0.072,0.398,0.063c0.818,1.242,1.42,2.082,1.808,2.519
		c0.386,0.437,0.636,0.817,0.749,1.138c0.113,0.322,0.183,0.592,0.209,0.813c0.027,0.22,0.12,0.692,0.281,1.417
		c0.091,0.138,0.184,0.76,0.278,1.864c0.094,1.105,0.207,2.356,0.337,3.756c0.129,1.398,0.251,2.891,0.367,4.477
		c0.115,1.587,0.275,2.924,0.479,4.016c-0.041,0.898,0.054,1.854,0.287,2.869c0.232,1.013,0.451,2.067,0.656,3.158
		c0.393,0.176,0.879,0.193,1.457,0.049c0.44-0.053,0.989-0.286,1.647-0.698c0.658-0.414,1.311-0.864,1.96-1.35
		c0.648-0.487,1.311-1.013,1.988-1.578c0.677-0.563,1.19-0.941,1.539-1.132l-0.11,0.013c-0.22,0.026-0.284,0.108-0.193,0.247
		l-0.085,0.234l0.441-0.053c0.357-0.118,0.884-0.534,1.581-1.25c0.696-0.715,1.421-1.341,2.175-1.877
		C130.228,101.616,130.063,102.418,130.086,103.234z M109.484,80.244l-0.758,0.201l0.176,0.537l0.757-0.201L109.484,80.244z"/>
	<path fill="#FEDB29" d="M170.104,41.981c-0.076,0.604-0.166,1.099-0.269,1.482c-0.185,0.321-0.447,0.779-0.785,1.378
		c-0.338,0.598-0.489,1.045-0.454,1.338c0.172,2.063-0.15,4.203-0.963,6.421c-0.815,2.218-1.659,5.277-2.533,9.176
		c-0.121,0.237-0.113,0.608,0.022,1.113c0.134,0.504,0.15,0.948,0.047,1.334c-0.132,0.758-0.266,1.668-0.4,2.727
		c-0.134,1.057-0.267,1.967-0.4,2.726c-0.077,0.604-0.218,1.291-0.424,2.059c-0.206,0.769-0.351,1.419-0.437,1.95
		c-0.243,2.335-0.541,4.659-0.898,6.972c-0.356,2.312-0.481,6.102-0.374,11.372l0.546,0.829c0.182,0.276,0.212,0.533,0.092,0.771
		c0.07,0.586,0.1,1.308,0.091,2.165c-0.009,0.857-0.06,1.681-0.151,2.474c-0.092,0.793-0.139,1.486-0.143,2.082
		c-0.003,0.597,0.009,1.004,0.035,1.224l0.443,1.845c0.539,0.158,1.242,0.28,2.107,0.361c0.866,0.084,1.514,0.062,1.946-0.064
		c1.157-0.286,2.487-0.836,3.99-1.647c1.503-0.813,2.958-1.712,4.366-2.699c1.408-0.986,2.679-1.863,3.816-2.632
		c1.136-0.768,1.832-1.316,2.091-1.645c-0.077,0.605-0.113,1.242-0.107,1.911c0.005,0.669,0.002,1.265-0.01,1.787
		c-0.077,0.604-0.404,1.294-0.981,2.07c-0.577,0.776-1.063,1.374-1.46,1.793c-0.203,0.173-0.358,0.433-0.465,0.781
		c-0.107,0.347-0.204,0.786-0.289,1.319c-0.626,0.371-1.322,0.771-2.09,1.198c-0.768,0.425-1.194,0.904-1.28,1.436
		c-0.91,0.481-2.037,1.005-3.383,1.576c-1.346,0.569-2.166,0.872-2.459,0.907l-2.711,0.659c-0.358,0.117-0.473,0.093-0.343-0.072
		c0.128-0.164,0.014-0.187-0.344-0.069c-0.219,0.026-0.579-0.024-1.078-0.151c-0.499-0.127-1.073-0.262-1.723-0.408
		c-0.65-0.146-1.254-0.373-1.81-0.677c-0.558-0.305-1.033-0.546-1.426-0.723c-0.346-0.405-0.876-0.955-1.592-1.651
		c-0.716-0.696-1.426-1.505-2.131-2.425c-0.705-0.92-1.445-2.599-2.22-5.036c-0.774-2.438-1.292-4.125-1.553-5.061
		c-0.435,0.723-0.871,1.593-1.307,2.612c-0.437,1.019-0.841,2.146-1.215,3.381c-0.52,1.252-1.121,2.608-1.802,4.066
		c-0.682,1.459-1.439,2.758-2.269,3.899c-0.323,0.411-0.724,0.942-1.205,1.595c-0.481,0.652-0.767,1.207-0.862,1.665
		c0.419,0.398,0.758,0.432,1.016,0.102c-0.655,0.748-1.28,1.436-1.874,2.065c-0.595,0.63-1.031,1.184-1.309,1.664
		c-0.278,0.48-0.548,0.864-0.811,1.157c-0.263,0.293-0.757,0.519-1.481,0.68c-0.294,0.034-0.832,0.042-1.615,0.025
		c-0.784-0.018-1.469,0.008-2.056,0.078c-2.109-1.461-3.64-2.746-4.59-3.861c-0.952-1.114-1.597-2.471-1.937-4.066
		c-0.474-2.102-0.524-4.551-0.152-7.35c0.373-2.797,0.967-5.621,1.78-8.472c0.814-2.85,1.674-5.612,2.583-8.288
		c0.908-2.676,1.739-4.915,2.491-6.716c0.352-0.786,0.776-1.599,1.271-2.439c0.495-0.842,1.066-1.671,1.711-2.493
		c0.121-0.237,0.402-0.531,0.844-0.881c0.442-0.35,0.801-0.617,1.077-0.798c0.203-0.173,0.538-0.325,1.006-0.455
		c0.468-0.13,0.922-0.222,1.362-0.275c0.284-0.108,0.465,0.001,0.541,0.327c0.076,0.325,0.335,0.462,0.775,0.409
		c0.358-0.117,0.512-0.229,0.462-0.334c-0.05-0.106-0.088-0.269-0.114-0.488c0.566,0.377,1.282,0.609,2.147,0.692
		c0.866,0.083,1.614,0.273,2.244,0.569c0.329,0.259,0.726,0.621,1.191,1.086c0.465,0.466,1.017,0.883,1.656,1.254
		c0.12-0.238,0.199-0.359,0.236-0.364c0.037-0.004,0.12-0.088,0.249-0.252c0.698-3.506,1.353-6.746,1.965-9.723
		c0.612-2.974,1.263-5.936,1.953-8.883c0.691-2.948,1.493-5.89,2.408-8.826c0.914-2.937,1.994-6.041,3.241-9.316
		c0.44-0.053,1.109-0.059,2.008-0.017c0.898,0.042,1.781,0.123,2.651,0.242c0.871,0.121,1.689,0.432,2.456,0.936
		c0.767,0.503,1.244,1.228,1.431,2.172C170.202,40.927,170.181,41.376,170.104,41.981z M146.904,81.862
		c-0.103-0.546-0.331-1.058-0.686-1.538c-0.259,0.329-0.586,0.703-0.982,1.123c-0.397,0.418-0.709,0.605-0.938,0.558
		c0.099,0.211,0.16,0.409,0.183,0.592c0.022,0.183-0.064,0.398-0.258,0.645c-0.352,0.786-0.839,1.699-1.458,2.741
		c-0.621,1.041-1.066,1.988-1.336,2.839c-0.52,1.252-0.928,2.51-1.225,3.773c-0.295,1.262-0.561,2.467-0.796,3.611
		c0.018,0.147,0.088,0.268,0.211,0.365c0.124,0.097,0.198,0.255,0.224,0.475c-0.159,0.54-0.293,1.132-0.402,1.778
		c-0.109,0.646-0.179,1.155-0.208,1.532c0.408-0.942,0.939-1.954,1.591-3.037c0.652-1.082,1.222-1.763,1.709-2.045
		c0.03-0.376,0.083-0.866,0.159-1.471c0.076-0.604,0.262-0.924,0.555-0.959c0.212-0.1,0.417-0.087,0.619,0.038
		c0.201,0.125,0.251,0.081,0.151-0.13l-0.079-0.66c0.626-0.373,0.931-0.782,0.915-1.226s0.075-1.088,0.272-1.929
		c0.246,0.193,0.286,0.374,0.121,0.542c-0.166,0.17-0.033,0.191,0.399,0.064c0.293-0.035,0.467-0.297,0.519-0.788
		c0.054-0.49-0.011-0.872-0.192-1.148c0.194-0.247,0.496-0.525,0.905-0.834c0.409-0.309,0.644-0.84,0.703-1.59
		c-0.255-0.267-0.368-0.589-0.338-0.964c0.03-0.377,0.027-0.71-0.008-1.004C147.116,82.858,147.006,82.408,146.904,81.862z"/>
	<path fill="#FEDB29" d="M204.205,62.076c-0.051,0.191-0.142,0.37-0.272,0.534c0.279,1.083,0.461,2.456,0.548,4.12
		c0.086,1.665-0.066,3.041-0.457,4.128c-0.194,0.247-0.521,0.472-0.98,0.675c-0.459,0.204-0.872,0.328-1.238,0.372
		c-0.294,0.035-0.808-0.071-1.546-0.319c-0.736-0.247-1.392-0.596-1.967-1.048c-0.487,0.282-0.741,0.647-0.762,1.096
		c-0.023,4.17,0.274,8.376,0.892,12.617c0.617,4.242,0.809,8.498,0.575,12.768c-0.025,1.044-0.068,2.389-0.133,4.033
		c-0.064,1.645-0.295,3.291-0.694,4.939c-0.399,1.647-1.065,3.085-1.997,4.312c-0.933,1.227-2.169,1.932-3.71,2.116
		c-0.44,0.052-0.685,0.026-0.735-0.08c-0.05-0.105-0.189-0.182-0.418-0.229c-0.164-0.129-0.24-0.139-0.226-0.029
		c0.013,0.11-0.201,0.191-0.641,0.244c-0.513,0.061-1.049-0.061-1.606-0.366c-0.558-0.306-1.113-0.594-1.666-0.862
		c-0.553-0.269-1.014-0.547-1.383-0.839c-0.37-0.291-0.628-0.428-0.774-0.411c-0.942-0.408-1.98-1.158-3.115-2.251
		c-1.135-1.092-2.212-2.321-3.231-3.689c-1.019-1.366-1.895-2.787-2.63-4.262c-0.734-1.475-1.167-2.763-1.298-3.864
		c-0.079-0.66,0.017-1.732,0.286-3.215c0.27-1.484,0.678-2.741,1.225-3.773c0.367-0.044,0.651-0.154,0.854-0.327
		c0.108,0.285,0.113,0.638,0.015,1.06c-0.098,0.421-0.163,0.819-0.192,1.194c0.173,0.203,0.335,0.314,0.486,0.332
		c0.151,0.02,0.349,0.126,0.597,0.32c0.22-0.026,0.313,0.13,0.279,0.469c-0.034,0.34-0.021,0.765,0.041,1.279
		c0.328,0.258,0.55,0.4,0.664,0.423s-0.055,0.323-0.507,0.898c0.537,0.754,0.762,1.397,0.677,1.928
		c0.273,0.414,0.639,0.835,1.1,1.263c0.46,0.429,0.579,0.954,0.356,1.577l0.492,0.388c0.314-0.484,0.692-0.753,1.132-0.805
		c0.71,0.957,1.286,2.042,1.728,3.254c0.442,1.212,1.257,2.119,2.445,2.721c0.591-0.665,1.053-1.465,1.388-2.398
		c0.336-0.933,0.601-1.82,0.798-2.662c0.477-1.619,0.737-3.492,0.781-5.618c0.044-2.126,0.012-4.262-0.095-6.407
		c-0.107-2.145-0.311-4.167-0.612-6.066c-0.301-1.898-0.527-3.471-0.676-4.718c-0.096-0.807-0.075-1.721,0.064-2.742
		c0.139-1.021,0.156-1.972,0.05-2.852c-0.035-0.293-0.125-0.58-0.27-0.861c-0.146-0.28-0.235-0.567-0.271-0.86
		c-0.088-0.733-0.101-1.477-0.042-2.227c0.059-0.751,0.092-1.722,0.098-2.914c-0.035-0.293-0.106-1.047-0.214-2.262
		c-0.108-1.214-0.112-2.498-0.013-3.848c0.099-1.352,0.289-2.565,0.57-3.64c0.281-1.076,0.752-1.653,1.412-1.732
		c0.44-0.053,0.701-0.046,0.783,0.018c0.082,0.065,0.242,0.157,0.48,0.278c1.734-0.432,3.723-0.127,5.967,0.905
		c2.244,1.035,3.983,2.038,5.215,3.007c0.1,0.211,0.161,0.408,0.183,0.591l0.072,0.605c0.475,0.241,0.938,0.688,1.388,1.341
		c0.45,0.653,0.697,1.162,0.74,1.531C204.26,61.604,204.257,61.883,204.205,62.076z M181.558,98.654l-0.197-1.651l0.44-0.053
		l0.197,1.651L181.558,98.654z"/>
	<path fill="#FEDB29" d="M254.059,86.988c0.255,0.268,0.473,0.539,0.656,0.816c0.181,0.276,0.437,0.544,0.765,0.802
		c-0.426,0.793-0.871,1.74-1.336,2.838c-0.176,0.392-0.145,0.649,0.093,0.77c-0.241,0.476-0.722,1.128-1.44,1.958
		c0.245,0.194,0.459,0.262,0.638,0.203c0.178-0.058,0.364-0.211,0.559-0.457c0.026,0.22-0.005,0.429-0.093,0.625
		c-0.089,0.197-0.316,0.317-0.683,0.361c-0.44,0.053-0.594,0.015-0.46-0.113c0.134-0.128,0.118-0.256-0.046-0.385
		c-0.129,0.164-0.197,0.376-0.203,0.637c-0.006,0.262-0.105,0.516-0.299,0.761c-0.121,0.238-0.308,0.54-0.563,0.904
		c-0.253,0.366-0.62,0.726-1.099,1.082c-0.526,0.583-1.303,1.234-2.334,1.951c-1.031,0.719-1.729,1.099-2.096,1.143
		c-1.321,0.157-2.702,0.119-4.144-0.119c-1.442-0.237-2.777-0.506-4.002-0.806c-0.238-0.12-0.622-0.372-1.152-0.756
		c-0.53-0.383-0.925-0.745-1.189-1.085c-0.818-1.242-1.586-2.527-2.302-3.856c-0.717-1.328-1.402-2.548-2.055-3.661
		c-0.263-0.34-0.398-0.846-0.404-1.514c-0.005-0.669-0.031-1.187-0.074-1.555c-0.07-0.586-0.287-1.156-0.651-1.707
		c-1.692,2.658-3.45,5.378-5.276,8.163c-1.826,2.786-3.365,5.778-4.621,8.98c-0.203,0.172-0.471,0.409-0.807,0.709
		c-0.337,0.301-0.748,0.593-1.236,0.874l-0.207,0.136c0.009,0.074,0.132,0.17,0.37,0.29c-0.514,0.061-1.089,0.074-1.726,0.038
		c-0.637-0.034-1.248-0.018-1.836,0.053c-0.282-0.488-0.737-0.88-1.368-1.177c-0.631-0.297-1.233-0.67-1.808-1.124
		c-0.329-0.258-0.725-0.62-1.19-1.085c-0.465-0.466-0.76-0.914-0.886-1.346c-0.282-0.486-0.545-1.144-0.793-1.97
		c-0.247-0.826-0.398-1.459-0.45-1.899c-0.306-2.569-0.314-4.818-0.024-6.75c0.29-1.932,0.506-4.172,0.649-6.719
		c0.453-0.574,0.786-1.21,1-1.905c0.215-0.696,0.356-1.382,0.424-2.06c-0.035-0.293-0.129-0.617-0.283-0.971
		c-0.155-0.353-0.213-0.682-0.174-0.984c0.158-0.54,0.382-1.013,0.668-1.419c0.286-0.407,0.531-0.696,0.733-0.869
		c0.258-0.328,0.373-0.769,0.344-1.325c-0.029-0.555,0-1.097,0.085-1.628c0.047-0.228,0.177-0.392,0.388-0.494
		c0.212-0.099,0.377-0.267,0.498-0.505c-0.026-0.22-0.08-0.362-0.162-0.427c-0.083-0.064-0.099-0.211-0.052-0.44
		c0.464-1.098,0.895-2.321,1.291-3.67c0.398-1.35,0.826-2.592,1.286-3.725c0.46-1.134,1.064-2.156,1.811-3.064
		c0.747-0.907,1.782-1.44,3.103-1.597c0.366-0.044,0.725,0.006,1.078,0.15c0.351,0.145,0.739,0.117,1.162-0.082
		c0.126,0.43,0.419,0.86,0.88,1.289c0.461,0.428,0.863,0.846,1.21,1.252c0.026,0.22,0.109,0.451,0.25,0.694
		c0.141,0.244,0.233,0.549,0.278,0.916c0.165,1.394-0.174,3.22-1.021,5.479c-0.847,2.259-1.56,4.39-2.139,6.394
		c-0.327,1.005-0.697,2.111-1.112,3.315c-0.414,1.201-0.781,2.343-1.098,3.423c-0.309,1.153-0.703,2.372-1.182,3.657
		c-0.479,1.284-0.929,2.66-1.35,4.123l0.066,0.55c0.026,0.22,0.13,0.469,0.312,0.745c-0.361,0.713-0.588,1.465-0.679,2.258
		c-0.092,0.791-0.236,1.609-0.433,2.45l0.092,0.77l0.219-0.026c3.17-4.618,6.162-9.013,8.975-13.18
		c2.814-4.169,5.096-8.589,6.845-13.262c0.279-0.779,0.651-1.715,1.115-2.812c0.465-1.098,0.942-2.085,1.433-2.961
		c0.246,0.193,0.542,0.345,0.89,0.452c0.347,0.107,0.686,0.289,1.015,0.548c0.219-0.027,0.28-0.144,0.18-0.356
		c-0.099-0.212-0.158-0.39-0.175-0.537c0.237,0.121,0.424,0.284,0.561,0.491c0.136,0.207,0.388,0.288,0.754,0.244
		c0.293-0.035,0.36-0.098,0.201-0.191c-0.16-0.092-0.094-0.156,0.201-0.19c0.147-0.018,0.49,0.22,1.034,0.714
		c0.542,0.494,1.345,0.826,2.407,0.996c0.428,0.47,0.862,1.144,1.301,2.021c0.44,0.878,0.686,1.537,0.739,1.977
		c0.026,0.221-0.191,0.898-0.652,2.032c-0.46,1.134-0.788,2.122-0.985,2.964c-0.373,1.236-0.695,2.594-0.965,4.078
		c-0.27,1.484-0.468,2.939-0.595,4.368l-0.084,0.233c-0.203,0.173-0.295,0.333-0.278,0.479c-0.081,1.2-0.124,2.546-0.133,4.034
		c-0.008,1.49,0.014,2.454,0.066,2.894c0.062,0.514,0.358,0.812,0.89,0.898c0.237,0.121,0.502,0.164,0.796,0.128
		c0.366-0.043,1.351-0.367,2.954-0.967c1.602-0.6,2.862-1.103,3.782-1.511c1.065-0.425,2.106-1.052,3.123-1.88
		c1.018-0.828,2.005-1.597,2.962-2.307l0.849,0.569C255.295,85.501,254.77,86.086,254.059,86.988z"/>
	<path fill="#FEDB29" d="M283.227,63.416c-0.498,0.506-0.606,1.004-0.325,1.49c-0.587,0.07-1.254,0.094-2,0.071
		c-0.747-0.022-1.621,0.138-2.621,0.481c-0.117-0.358-0.244-0.79-0.378-1.295c-0.135-0.504-0.319-1.114-0.553-1.831
		c-2.105,1.07-3.923,2.83-5.453,5.283c-1.531,2.452-2.865,4.825-4.006,7.119c-0.043-0.367-0.213-0.533-0.506-0.498
		c-0.287,0.703-0.308,1.153-0.062,1.346c-0.147,0.018-0.252,0.068-0.317,0.15l-0.278,0.479c-0.056,0.156-0.004,0.28,0.156,0.372
		c0.159,0.094,0.252,0.249,0.279,0.47c-0.146,0.018-0.253,0.067-0.317,0.149c-0.065,0.083-0.207,0.137-0.427,0.163l-0.11,0.013
		c-0.22,0.026-0.321,0.113-0.303,0.26c-0.121,0.237-0.064,0.398,0.168,0.482c0.233,0.083,0.354,0.162,0.363,0.235
		c-0.511,1.326-1.229,2.789-2.155,4.387c0.027,0.22,0.101,0.378,0.224,0.475c0.123,0.097,0.152,0.187,0.087,0.268
		c-0.157,0.541-0.383,0.995-0.674,1.364l-0.92,1.171c-0.249,0.401-0.362,0.862-0.337,1.379c0.024,0.517-0.047,1.01-0.215,1.477
		c-0.559,1.554-0.992,3.225-1.3,5.01c-0.308,1.786-0.113,3.418,0.585,4.897c-0.607,0.519-1.279,0.822-2.012,0.91
		c-0.22,0.026-0.678-0.069-1.373-0.283c-0.695-0.214-1.313-0.402-1.853-0.56c-0.247-0.193-0.399-0.53-0.456-1.007
		c-0.057-0.476-0.369-0.606-0.939-0.389c-0.507-1.13-1.034-2.109-1.578-2.937c-0.545-0.827-0.871-1.681-0.976-2.562
		c-0.017-0.147,0.038-0.618,0.166-1.415c0.128-0.796,0.225-1.7,0.29-2.713c0.065-1.012,0.149-2.026,0.251-3.043
		c0.101-1.016,0.142-1.934,0.118-2.748c0.269-2.116,0.464-4.222,0.585-6.321c0.122-2.098,0.129-4.22,0.022-6.365
		c-0.001-1.265,0.014-2.699,0.045-4.303c0.031-1.603,0.025-3.222-0.022-4.852c0.025-1.045,0.022-2.161-0.009-3.347
		c-0.03-1.188,0.04-2.312,0.212-3.375l1.321-0.158c0.587-0.07,1.359,0.173,2.319,0.729c0.959,0.555,1.629,1.181,2.01,1.881
		c0.39,0.771,0.724,1.551,1.005,2.336c0.28,0.785,0.504,1.576,0.673,2.375c0.144,0.578,0.177,1.17,0.1,1.774
		c-0.077,0.604-0.067,1.31,0.03,2.117c0.206-0.768,0.683-1.607,1.43-2.514c0.747-0.907,1.57-1.805,2.469-2.695
		c0.898-0.888,1.886-1.657,2.962-2.306c1.075-0.649,2.053-1.026,2.933-1.131c1.614-0.192,3.52,0.025,5.715,0.657
		c2.197,0.631,4.01,1.642,5.441,3.035c0.255,0.267,0.482,0.612,0.681,1.035c0.2,0.422,0.472,0.836,0.818,1.241
		C284.052,62.388,283.724,62.91,283.227,63.416z"/>
	<path fill="#FEDB29" d="M343.868,55.288c-0.515,0.358-1.145,0.843-1.891,1.452l-0.471,0.726c0.238,0.12,0.457,0.243,0.659,0.368
		c0.2,0.125,0.319,0.333,0.353,0.628c-0.496,0.208-1.023,0.475-1.578,0.802c-0.557,0.327-1.088,0.558-1.593,0.692
		c-0.012,0.521-0.211,0.88-0.597,1.075c-0.386,0.195-0.815,0.339-1.288,0.432c-0.472,0.094-1.02,0.179-1.644,0.253
		c-0.623,0.074-1.114,0.169-1.473,0.286c-0.853,0.325-1.872,0.838-3.053,1.537c-1.181,0.699-1.956,1.07-2.322,1.114
		c-0.441,0.052-0.612,0.017-0.516-0.106c0.097-0.123-0.037-0.163-0.405-0.12c-0.219,0.026-0.61,0.185-1.171,0.475
		c-0.561,0.289-1.249,0.594-2.067,0.916c-0.817,0.32-1.628,0.695-2.432,1.127c-0.804,0.431-1.564,0.763-2.281,0.998
		c-2.903,1.239-6,2.409-9.292,3.509c-3.292,1.099-6.462,2.278-9.512,3.534c-0.194,0.247-0.398,0.568-0.61,0.965
		c-0.214,0.399-0.311,0.67-0.293,0.817c-0.286,1.969-0.571,4.254-0.856,6.855c-0.284,2.601-0.506,5.27-0.663,8.003
		c-0.158,2.735-0.3,5.431-0.43,8.088c-0.129,2.658-0.246,5.108-0.35,7.353c-0.073,0.009-0.3-0.336-0.681-1.035
		c-0.241,0.476-0.418,1.166-0.534,2.074c0.023,0.816,0.034,1.855,0.037,3.12c0.002,1.266,0.025,2.081,0.069,2.448l0.866,7.263
		c0.622,0.223,1.051,0.543,1.288,0.962c0.235,0.418,0.384,0.884,0.445,1.398c0.062,0.514,0.085,1.013,0.067,1.499
		c-0.016,0.485,0.043,0.98,0.178,1.485l0.484-0.616c-0.059,0.752,0.039,1.111,0.296,1.081c0.257-0.031,0.399,0.065,0.424,0.284
		c0.053,0.441-0.014,0.97-0.201,1.587c-0.187,0.618-0.359,1.197-0.519,1.736l-0.33,0.039c-0.074,0.008-0.233-0.084-0.479-0.278
		c-0.147,0.018-0.246,0.122-0.297,0.314c-0.051,0.193-0.065,0.399-0.038,0.618c-0.868-0.416-1.806-0.956-2.815-1.616
		c-1.009-0.661-1.855-1.36-2.539-2.098c-0.234-0.716-0.484-1.56-0.749-2.533c-0.265-0.973-0.489-1.914-0.671-2.822
		c-0.183-0.908-0.357-1.744-0.523-2.506c-0.165-0.761-0.256-1.215-0.274-1.361l-0.594-21.806c-0.027-0.22,0.029-1.007,0.164-2.364
		c0.136-1.355,0.299-2.955,0.488-4.801c0.188-1.846,0.366-3.783,0.534-5.812c0.167-2.029,0.236-3.786,0.208-5.271
		c-0.612-0.149-1.145,0.063-1.598,0.638c-0.182-0.277-0.483-0.464-0.905-0.562s-0.851-0.121-1.292-0.069
		c-0.366,0.044-0.47,0.111-0.309,0.204c0.159,0.093,0.248,0.213,0.266,0.36c-0.411-0.324-0.837-0.458-1.277-0.406
		c-0.367,0.044-0.706,0.009-1.017-0.102c-0.311-0.113-0.626-0.261-0.946-0.445c-0.32-0.185-0.703-0.437-1.151-0.756
		c-0.447-0.318-0.793-0.575-1.04-0.768c-0.082-0.065-0.306-0.391-0.674-0.981c-0.368-0.588-0.745-1.25-1.13-1.985
		c-0.386-0.735-0.736-1.493-1.053-2.275c-0.316-0.78-0.492-1.317-0.528-1.61c-0.026-0.22,0.159-0.391,0.554-0.513
		c0.394-0.121,0.36-0.564-0.103-1.327c0.795,0.425,1.399,0.652,1.811,0.678c0.412,0.025,0.744,0.004,0.996-0.064
		c0.253-0.066,0.537-0.176,0.854-0.324c0.317-0.15,0.806-0.264,1.467-0.343c0.367-0.044,0.484-0.151,0.351-0.321
		c-0.131-0.171-0.05-0.273,0.243-0.308c0.514-0.062,1.102-0.113,1.767-0.155c0.665-0.042,1.419-0.262,2.265-0.662
		c0.764-0.462,1.989-0.795,3.676-0.997c0.254-2.858,0.495-5.825,0.723-8.904c0.228-3.077,0.519-5.94,0.873-8.587
		c0.256-1.593,0.466-3.273,0.627-5.041c0.16-1.768,0.41-3.417,0.749-4.945c0.462-2.361,0.957-4.914,1.485-7.656
		c0.53-2.741,1.097-5.47,1.703-8.183c0.606-2.714,1.308-5.403,2.107-8.065c0.797-2.662,1.73-5.136,2.797-7.422
		c0.111-0.311,0.356-0.75,0.735-1.315c0.379-0.566,0.792-1.156,1.24-1.767c0.448-0.611,0.87-1.127,1.267-1.546
		c0.396-0.418,0.741-0.646,1.035-0.681c0.367-0.044,0.668-0.006,0.907,0.114c0.238,0.121,0.516,0.274,0.837,0.458
		c0.393,0.177,0.864,0.232,1.414,0.167c0.55-0.066,1.087-0.093,1.608-0.08c0.54,0.159,1.102,0.351,1.688,0.58
		c0.585,0.227,1.037,0.434,1.357,0.619c0.803,0.499,1.673,1.084,2.609,1.753c0.935,0.67,1.695,1.267,2.279,1.794
		c0.463,0.762,1.036,1.662,1.717,2.696c0.682,1.035,1.044,1.736,1.088,2.103c0.053,0.44-0.074,1.405-0.38,2.892
		c-0.306,1.488-0.549,2.726-0.728,3.715c-0.514,0.061-0.978,0.376-1.394,0.948c-0.415,0.57-0.808,1.175-1.179,1.815
		c-0.22,0.027-0.432-0.041-0.638-0.203c-0.206-0.162-0.345-0.237-0.418-0.228l-0.814,0.655c-0.247-0.195-0.48-0.278-0.7-0.252
		l-0.55,0.065l0.485-0.616c-0.394-0.176-0.803-0.333-1.228-0.467c-0.426-0.136-0.761-0.301-1.008-0.495
		c-0.354-0.478-0.704-1.069-1.048-1.773c-0.345-0.702-0.538-1.236-0.583-1.604c-0.052-0.44,0.005-0.744,0.17-0.912
		c0.166-0.17,0.314-0.336,0.443-0.5c0.238,0.12,0.363,0.236,0.376,0.346c0.013,0.11,0.143,0.262,0.389,0.456
		c0.345-0.86,0.455-1.803,0.333-2.83c-0.035-0.293-0.089-0.583-0.16-0.873c-0.072-0.289-0.291-0.411-0.658-0.368
		c-0.514,0.061-1,0.659-1.461,1.792c-0.46,1.134-0.888,2.375-1.286,3.725c-0.397,1.35-0.775,2.697-1.136,4.042
		c-0.36,1.346-0.555,2.205-0.584,2.581c-0.245,1.071-0.783,2.958-1.613,5.661c-0.831,2.704-1.478,5.237-1.939,7.598
		c-0.304,1.822-0.656,4.022-1.054,6.599c-0.4,2.578-0.683,5.03-0.852,7.357c-0.162,1.135-0.35,2.367-0.564,3.694
		c-0.214,1.328-0.494,2.72-0.841,4.175c-0.129,0.164-0.268,0.255-0.414,0.272c-0.147,0.018-0.317,0.15-0.511,0.397
		c0.044,0.366,0.23,0.679,0.559,0.938c0.099,0.212,0.075,0.474-0.074,0.789c-0.148,0.316-0.315,0.633-0.5,0.953l0.093,0.77
		c1.144,0.237,2.469,0.115,3.975-0.363c1.505-0.476,2.836-0.858,3.992-1.146c1.368-0.386,2.841-0.672,4.418-0.861
		c1.577-0.188,3.122-0.485,4.637-0.889c0.66-0.079,1.153-0.324,1.476-0.734c1.622-0.12,3.547-0.367,5.771-0.744
		c2.225-0.377,4.327-0.683,6.309-0.919c0.137-0.092,0.317-0.151,0.536-0.177c0.219-0.026,0.353-0.153,0.401-0.382
		c0.834,0.125,1.721,0.074,2.661-0.15c0.941-0.224,1.848-0.425,2.719-0.604l0.096-0.124c0.195-0.246,0.402-0.382,0.621-0.409
		c0.367-0.044,0.433,0.041,0.198,0.256c-0.234,0.213-0.132,0.294,0.308,0.242c0.294-0.035,0.778-0.187,1.453-0.452
		c0.675-0.267,1.196-0.422,1.563-0.466c0.366-0.044,0.616,0.019,0.748,0.19c0.132,0.169,0.308,0.242,0.528,0.216
		C344.899,54.718,344.384,54.928,343.868,55.288z M295.91,111.238l-0.55,0.066l0.211,1.76l0.55-0.066L295.91,111.238z
		 M297.74,113.475l-0.223-1.87l0.44-0.052l0.223,1.87L297.74,113.475z M344.188,54.691l-1.1,0.131l0.052,0.44l1.1-0.131
		L344.188,54.691z M345.003,54.036l0.052,0.44L345.003,54.036z"/>
	<path fill="#FEDB29" d="M86.902,192.206c-0.151,0.613-0.445,0.947-0.886,0.999c-0.367,0.044-0.538,0.008-0.515-0.106
		c0.024-0.114-0.025-0.053-0.145,0.185c0.026,0.22-0.011,0.373-0.113,0.46c-0.101,0.086-0.005,0.112,0.288,0.078
		c0.367-0.044,0.529-0.083,0.488-0.115c-0.041-0.031,0.049-0.061,0.269-0.088c-0.194,0.246-0.354,0.62-0.48,1.118
		c-0.127,0.499-0.103,0.848,0.07,1.051c-0.591,0.667-1.254,1.34-1.991,2.024c-0.737,0.683-1.364,1.354-1.881,2.01
		c0.035,0.294,0.236,0.419,0.603,0.375l0.131,1.1c-1.232,0.891-2.544,1.903-3.934,3.037c-1.39,1.133-3.006,2.405-4.847,3.814
		c-0.194,0.247-0.358,0.584-0.494,1.008c-0.135,0.425-0.336,0.766-0.604,1.023c-0.276,0.181-0.8,0.467-1.571,0.856
		c-0.772,0.39-1.599,0.786-2.481,1.188c-0.882,0.403-1.787,0.773-2.715,1.105c-0.927,0.334-1.685,0.536-2.271,0.607
		c-1.468,0.174-2.885-0.011-4.252-0.554c-1.367-0.543-2.607-1.271-3.72-2.179c-1.113-0.909-2.06-1.986-2.841-3.233
		c-0.781-1.245-1.279-2.451-1.492-3.616c-0.053-0.44-0.127-0.914-0.226-1.425c-0.097-0.508-0.168-0.947-0.212-1.313
		c-0.192-1.613-0.201-3.864-0.024-6.75c0.176-2.887,0.701-5.348,1.574-7.387c0.138-0.091,0.189-0.283,0.154-0.577
		c-0.035-0.293-0.033-0.592,0.005-0.894c0.382-1.162,0.787-2.289,1.215-3.381c0.428-1.093,0.956-2.123,1.585-3.091l1.259-1.602
		c0.388-0.494,0.693-1.05,0.917-1.672c-0.018-0.148-0.067-0.252-0.15-0.316c-0.258,0.328-0.383,0.529-0.375,0.602
		c0.564-0.886,1.152-2.036,1.765-3.448s1.302-2.647,2.069-3.707c0.176-0.393,0.517-0.656,1.022-0.791
		c0.505-0.135,0.964-0.339,1.378-0.611c0.341-0.264,0.603-0.555,0.788-0.875c0.185-0.32,0.498-0.506,0.938-0.558
		c0.294-0.035,1.004-0.009,2.131,0.081c1.127,0.089,2.001,0.244,2.622,0.469c0.631,0.297,1.472,0.79,2.521,1.484
		c1.05,0.694,1.812,1.459,2.283,2.294c0.364,0.552,0.708,1.256,1.034,2.109c0.325,0.853,0.514,1.501,0.566,1.941
		c0.035,0.294,0.03,0.871-0.017,1.732c-0.046,0.861-0.127,1.745-0.241,2.651c-0.115,0.908-0.272,1.782-0.469,2.624
		c-0.197,0.842-0.434,1.354-0.71,1.537c-0.266,0.254-0.804,0.43-1.611,0.527c-0.88,0.104-1.594-0.108-2.141-0.638
		c-0.547-0.531-0.978-1.186-1.295-1.966c-0.29-0.561-0.633-1.098-1.029-1.608c-0.396-0.511-0.519-1.072-0.369-1.686L68.463,178
		l-0.33,0.039c-1.748,2.812-3.233,5.65-4.454,8.512c-1.221,2.862-2.186,5.377-2.895,7.545c-0.214,0.695-0.428,1.557-0.639,2.588
		c-0.212,1.03-0.406,2.057-0.581,3.083c-0.175,1.026-0.327,1.936-0.455,2.733c-0.127,0.795-0.184,1.268-0.166,1.414l0.184,1.541
		c0.54,0.158,1.149,0.272,1.827,0.34c0.677,0.068,1.163,0.085,1.457,0.049c0.293-0.035,0.925-0.352,1.896-0.952
		c0.97-0.599,1.873-1.135,2.71-1.606c1.885-1.044,4.001-2.17,6.349-3.381c2.348-1.21,4.728-2.629,7.138-4.256
		c0.616-0.445,1.627-1.179,3.03-2.204c1.403-1.022,2.731-1.906,3.981-2.65C87.255,191.123,87.051,191.593,86.902,192.206z"/>
	<path fill="#FEDB29" d="M132.806,194.318c-0.478,0.354-0.769,0.724-0.872,1.109c-0.526,0.584-0.611,1.114-0.256,1.594
		c-0.379,0.566-0.914,1.225-1.606,1.978c-0.691,0.752-1.406,1.47-2.142,2.152c0.009,0.074,0.136,0.208,0.382,0.402
		c0.247,0.194,0.443,0.283,0.59,0.265c-0.578,0.144-1.189,0.476-1.833,1l-1.934,1.57c-0.644,0.523-1.222,0.982-1.733,1.379
		c-0.511,0.396-0.876,0.607-1.097,0.634l-4.622,0.551c-1.1,0.131-2.239-0.217-3.417-1.043c-1.177-0.828-2.221-1.782-3.131-2.863
		c-0.911-1.082-1.67-2.146-2.278-3.189c-0.608-1.042-0.921-1.638-0.939-1.785c-0.079-0.66-0.198-1.501-0.357-2.525
		c-0.159-1.022-0.373-2.039-0.643-3.048c-0.465,1.098-0.956,2.123-1.474,3.079c-0.519,0.953-1.043,2.021-1.571,3.2
		c-0.241,0.475-0.681,1.309-1.32,2.502c-0.639,1.192-1.385,2.417-2.241,3.671c-0.855,1.256-1.761,2.387-2.72,3.394
		c-0.959,1.007-1.842,1.56-2.648,1.657c-0.294,0.034-0.67,0.155-1.13,0.358c-0.46,0.203-0.836,0.322-1.129,0.357
		c-1.834,0.219-3.246-0.078-4.236-0.89c-0.99-0.813-2.051-1.597-3.183-2.355c-0.126-0.431-0.361-0.998-0.705-1.702
		c-0.345-0.702-0.534-1.201-0.569-1.494c-0.192-1.613,0.035-3.761,0.682-6.443c0.647-2.681,1.494-5.406,2.541-8.173
		c1.047-2.765,2.148-5.389,3.302-7.872c1.155-2.482,2.134-4.403,2.939-5.763c0.306-0.558,0.864-1.332,1.677-2.321
		c0.812-0.99,1.554-1.786,2.226-2.387c0.487-0.281,0.972-0.748,1.452-1.4c0.48-0.654,0.95-1.23,1.412-1.732
		c0.129-0.164,0.146-0.334,0.051-0.508c-0.095-0.174-0.078-0.345,0.051-0.508c0.487-0.282,0.914-0.445,1.282-0.489
		c0.366-0.043,0.684-0.192,0.95-0.447c0.543-0.438,0.922-1.003,1.136-1.699l0.881-0.104c0.813,0.573,1.475,0.829,1.989,0.768
		c0.293-0.035,0.591-0.034,0.894,0.004c0.302,0.037,0.6,0.04,0.893,0.005c0.573-0.813,0.801-1.398,0.684-1.756
		c-0.117-0.357,0.191-0.581,0.924-0.667c0.367-0.044,0.55,0.083,0.548,0.38c-0.001,0.299,0.181,0.426,0.548,0.382
		c0.44-0.052,0.58-0.126,0.421-0.218c-0.16-0.093-0.094-0.157,0.2-0.192c0.66-0.079,1.551,0.057,2.671,0.408
		c1.121,0.349,1.932,0.755,2.433,1.216c0.182,0.277,0.399,0.696,0.654,1.262c0.253,0.564,0.283,0.97,0.089,1.217
		c0.027,0.22,0.084,0.231,0.172,0.036c0.088-0.197,0.158-0.076,0.211,0.365c0.026,0.219-0.019,0.783-0.134,1.69
		c-0.115,0.906-0.302,1.988-0.561,3.247c-0.259,1.258-0.473,2.587-0.641,3.983c-0.168,1.398-0.301,2.622-0.398,3.676
		c-0.127,1.428-0.238,3.152-0.332,5.173c-0.094,2.021-0.145,3.925-0.156,5.711c-0.01,1.788,0.009,3.348,0.056,4.681
		c0.048,1.335,0.081,2.075,0.098,2.222c0.035,0.292,0.152,0.801,0.349,1.52c0.198,0.722,0.327,1.339,0.389,1.853
		c0.613,0.15,1.204,0.116,1.773-0.1s1.075-0.351,1.514-0.404c0.44-0.052,1.359-0.46,2.756-1.223c1.398-0.762,2.896-1.61,4.496-2.544
		c1.6-0.935,3.057-1.816,4.372-2.644c1.315-0.826,2.042-1.285,2.18-1.376C133.572,193.558,133.285,193.965,132.806,194.318z
		 M104.277,177.856c-0.247-0.195-0.328-0.408-0.244-0.642c0.084-0.232,0.117-0.423,0.1-0.57c-1.571,2.421-3.017,5.123-4.335,8.107
		c-1.318,2.985-2.483,5.841-3.498,8.567l0.753,0.691c1.507-2.338,2.86-5.029,4.059-8.074c1.199-3.046,2.448-5.986,3.747-8.82
		L104.277,177.856z"/>
	<path fill="#FEDB29" d="M159.466,192.309c-0.163,0.503-0.493,0.858-0.988,1.067c0.009,0.074,0.063,0.217,0.162,0.427
		c0.56-0.289,1.085-0.576,1.571-0.857c-0.781,0.316-0.847,0.697-0.199,1.14c-0.552,0.363-0.976,1.01-1.276,1.938
		c-0.298,0.928-0.04,1.381,0.777,1.357c-0.414,0.274-0.698,0.699-0.852,1.275c-0.155,0.577-0.292,0.983-0.412,1.221
		c-0.535,0.51-1.197,1.037-1.988,1.577c-0.791,0.541-1.45,1.102-1.975,1.687c-0.332,0.337-0.69,0.771-1.073,1.299
		c-0.383,0.531-0.86,0.904-1.43,1.119c-0.487,0.282-1.05,0.553-1.688,0.815c-0.638,0.264-1.242,0.503-1.811,0.72l-0.74-0.583
		c-0.599,0.594-1.051,0.851-1.358,0.778c-0.307-0.076-0.643-0.092-1.01-0.047c-0.44,0.052-0.596,0.146-0.469,0.28
		c0.127,0.133,0.008,0.221-0.359,0.266c-0.22,0.026-0.871-0.119-1.949-0.437c-1.08-0.318-1.885-0.52-2.417-0.604
		c-1.84-0.451-3.507-1.331-5.002-2.64c-1.496-1.31-2.794-2.829-3.893-4.558c-1.099-1.729-1.919-3.455-2.459-5.176
		c-0.541-1.723-0.894-3.28-1.06-4.674c-0.543-4.549-0.555-8.863-0.038-12.943c0.518-4.08,1.049-8.199,1.596-12.356
		c0.012-0.523,0.159-1.005,0.441-1.448c0.282-0.443,0.438-0.852,0.467-1.227c0.072-1.274,0.19-2.776,0.355-4.507
		c0.165-1.731,0.377-3.393,0.633-4.987c0.256-1.593,0.664-3.632,1.223-6.117c0.56-2.485,1.154-5.143,1.784-7.97
		c0.158-0.54,0.428-1.094,0.806-1.659c0.379-0.568,0.607-1.153,0.684-1.756c0.415-2.134,0.929-3.757,1.539-4.872
		c0.612-1.115,0.802-2.328,0.571-3.64c0.147-0.017,0.344-0.078,0.592-0.182c0.248-0.103,0.519-0.173,0.812-0.208
		c0.367-0.044,0.792,0.092,1.277,0.406c0.484,0.314,0.987,0.477,1.508,0.489c0.147-0.018,0.216-0.063,0.207-0.136l0.33-0.039
		l0.55-0.066c0.282,0.487,0.629,1.059,1.042,1.718c0.413,0.658,0.723,1.234,0.931,1.73c0.265,0.341,0.397,0.827,0.398,1.459
		c0.001,0.633,0.133,1.119,0.397,1.459l-6.609,36.283c-0.364,1.308-0.688,2.65-0.971,4.022c-0.282,1.373-0.459,2.697-0.531,3.971
		c-0.116,0.906-0.214,2.109-0.295,3.607c-0.082,1.498-0.18,3.016-0.294,4.555c-0.114,1.539-0.159,3.033-0.135,4.481
		c0.024,1.448,0.084,2.576,0.181,3.383c0.035,0.293,0.134,0.969,0.297,2.03c0.164,1.059,0.322,1.915,0.474,2.566
		c0.108,0.284,0.311,0.577,0.606,0.876c0.296,0.299,0.568,0.546,0.814,0.739c1.024,0.474,1.939,0.662,2.746,0.566
		c0.44-0.052,0.723-0.179,0.848-0.381c0.125-0.201,0.297-0.314,0.518-0.34c0.367-0.044,0.649-0.023,0.845,0.066
		c0.196,0.088,0.515,0.106,0.955,0.053c0.22-0.027,0.574-0.18,1.062-0.461c0.487-0.283,1.364-0.722,2.633-1.319
		c0.267-0.255,0.516-0.509,0.746-0.759c0.231-0.251,0.456-0.39,0.676-0.416c0.44-0.052,0.63-0.019,0.57,0.1
		c-0.06,0.119,0.093,0.157,0.46,0.112c0.293-0.034,0.855-0.474,1.685-1.317c0.83-0.844,1.828-1.669,2.996-2.478
		c-0.202,0.172-0.175,0.392,0.079,0.66c0.057-0.156,0.078-0.288,0.065-0.399c-0.013-0.109,0.127-0.183,0.42-0.218
		c0.367-0.044,0.95-0.299,1.75-0.767c0.8-0.467,1.439-0.879,1.917-1.233C159.868,191.312,159.629,191.807,159.466,192.309z"/>
	<path fill="#FEDB29" d="M188.92,180.032c-0.15,0.613-0.445,0.947-0.885,0.999c-0.367,0.043-0.538,0.007-0.514-0.106
		c0.023-0.114-0.026-0.053-0.146,0.185c0.026,0.219-0.011,0.373-0.113,0.46c-0.101,0.086-0.004,0.112,0.288,0.078
		c0.367-0.044,0.53-0.083,0.489-0.115c-0.041-0.031,0.049-0.061,0.269-0.088c-0.194,0.246-0.354,0.619-0.48,1.118
		c-0.126,0.499-0.103,0.848,0.069,1.051c-0.59,0.666-1.254,1.34-1.99,2.024c-0.737,0.683-1.364,1.354-1.881,2.01
		c0.035,0.294,0.236,0.418,0.603,0.375l0.131,1.1c-1.233,0.891-2.545,1.903-3.935,3.037c-1.39,1.133-3.006,2.405-4.846,3.814
		c-0.194,0.247-0.359,0.584-0.494,1.008c-0.135,0.425-0.336,0.766-0.604,1.022c-0.276,0.182-0.8,0.468-1.571,0.857
		c-0.772,0.389-1.599,0.786-2.481,1.188c-0.882,0.403-1.787,0.773-2.714,1.105c-0.927,0.334-1.685,0.536-2.271,0.606
		c-1.468,0.175-2.885-0.01-4.252-0.553c-1.367-0.544-2.607-1.271-3.72-2.179c-1.113-0.91-2.06-1.986-2.841-3.233
		c-0.781-1.246-1.279-2.451-1.492-3.616c-0.053-0.44-0.128-0.914-0.226-1.425c-0.098-0.508-0.169-0.947-0.213-1.313
		c-0.193-1.613-0.201-3.864-0.025-6.75c0.177-2.887,0.701-5.348,1.574-7.387c0.138-0.091,0.189-0.283,0.155-0.577
		c-0.035-0.293-0.033-0.592,0.006-0.894c0.381-1.162,0.786-2.289,1.215-3.381c0.428-1.093,0.955-2.123,1.584-3.091l1.259-1.602
		c0.388-0.494,0.693-1.05,0.917-1.672c-0.018-0.148-0.067-0.252-0.149-0.316c-0.259,0.328-0.384,0.529-0.375,0.602
		c0.564-0.886,1.153-2.036,1.765-3.448c0.613-1.414,1.302-2.648,2.07-3.707c0.176-0.393,0.517-0.657,1.022-0.791
		c0.504-0.135,0.963-0.339,1.378-0.611c0.341-0.264,0.603-0.555,0.788-0.875c0.185-0.32,0.498-0.506,0.938-0.558
		c0.294-0.035,1.004-0.009,2.13,0.08c1.127,0.09,2.001,0.245,2.623,0.47c0.631,0.296,1.472,0.79,2.521,1.483
		c1.05,0.695,1.812,1.46,2.283,2.295c0.363,0.552,0.708,1.256,1.034,2.109c0.324,0.853,0.513,1.501,0.566,1.941
		c0.035,0.294,0.03,0.871-0.016,1.732c-0.046,0.861-0.127,1.745-0.242,2.651c-0.115,0.908-0.271,1.782-0.468,2.624
		c-0.198,0.842-0.434,1.354-0.71,1.536c-0.267,0.255-0.804,0.431-1.612,0.527c-0.88,0.105-1.594-0.108-2.14-0.637
		c-0.547-0.531-0.978-1.186-1.295-1.966c-0.29-0.561-0.633-1.098-1.029-1.608c-0.395-0.511-0.519-1.072-0.369-1.686l-0.013-0.109
		l-0.33,0.039c-1.748,2.812-3.233,5.65-4.453,8.512c-1.222,2.862-2.186,5.377-2.895,7.545c-0.215,0.695-0.428,1.557-0.64,2.588
		c-0.212,1.03-0.406,2.057-0.58,3.083c-0.175,1.026-0.327,1.936-0.455,2.733c-0.128,0.795-0.184,1.268-0.166,1.414l0.184,1.541
		c0.54,0.158,1.149,0.272,1.827,0.34c0.678,0.068,1.163,0.084,1.457,0.049c0.293-0.035,0.925-0.352,1.896-0.952
		c0.97-0.599,1.874-1.135,2.71-1.606c1.884-1.044,4.001-2.17,6.349-3.381c2.348-1.21,4.727-2.629,7.137-4.256
		c0.616-0.445,1.627-1.18,3.029-2.204c1.404-1.022,2.731-1.906,3.981-2.651C189.274,178.949,189.07,179.419,188.92,180.032z"/>
	<path fill="#FEDB29" d="M231.547,180.86c0.256,0.269,0.473,0.54,0.656,0.816c0.182,0.276,0.437,0.543,0.765,0.802
		c-0.425,0.793-0.87,1.74-1.335,2.838c-0.177,0.393-0.146,0.649,0.092,0.77c-0.241,0.475-0.722,1.128-1.44,1.958
		c0.246,0.194,0.459,0.262,0.638,0.203c0.178-0.058,0.365-0.211,0.559-0.458c0.027,0.22-0.005,0.429-0.093,0.625
		c-0.089,0.197-0.316,0.317-0.683,0.361c-0.44,0.052-0.593,0.015-0.46-0.113c0.134-0.128,0.118-0.256-0.046-0.385
		c-0.129,0.164-0.197,0.376-0.203,0.638c-0.006,0.262-0.105,0.516-0.299,0.761c-0.121,0.238-0.308,0.54-0.562,0.904
		c-0.254,0.366-0.62,0.726-1.099,1.082c-0.527,0.583-1.303,1.234-2.335,1.952c-1.031,0.718-1.728,1.099-2.096,1.143
		c-1.321,0.158-2.702,0.119-4.144-0.119c-1.442-0.236-2.776-0.506-4.002-0.806c-0.238-0.12-0.621-0.372-1.152-0.756
		c-0.529-0.383-0.925-0.745-1.189-1.085c-0.818-1.242-1.585-2.528-2.301-3.856s-1.403-2.548-2.055-3.661
		c-0.264-0.341-0.399-0.847-0.405-1.515c-0.005-0.669-0.031-1.186-0.074-1.554c-0.07-0.587-0.286-1.156-0.65-1.708
		c-1.692,2.657-3.451,5.378-5.277,8.163c-1.826,2.786-3.366,5.778-4.621,8.979c-0.202,0.172-0.472,0.409-0.808,0.71
		c-0.337,0.301-0.748,0.593-1.236,0.874l-0.207,0.136c0.008,0.074,0.132,0.17,0.37,0.29c-0.514,0.062-1.089,0.074-1.726,0.038
		c-0.637-0.034-1.248-0.018-1.835,0.052c-0.282-0.487-0.738-0.879-1.368-1.176c-0.632-0.297-1.234-0.671-1.809-1.124
		c-0.329-0.258-0.725-0.62-1.19-1.085c-0.465-0.466-0.76-0.914-0.886-1.346c-0.282-0.487-0.546-1.145-0.793-1.971
		c-0.248-0.826-0.398-1.459-0.45-1.899c-0.306-2.568-0.314-4.818-0.024-6.75c0.29-1.933,0.506-4.173,0.649-6.72
		c0.453-0.574,0.786-1.209,1.001-1.905c0.215-0.696,0.355-1.382,0.423-2.06c-0.035-0.293-0.129-0.617-0.283-0.971
		c-0.155-0.352-0.212-0.681-0.173-0.983c0.158-0.54,0.381-1.013,0.667-1.419c0.286-0.407,0.531-0.696,0.734-0.869
		c0.257-0.329,0.373-0.771,0.344-1.325c-0.03-0.555-0.001-1.098,0.085-1.628c0.047-0.227,0.176-0.392,0.387-0.493
		c0.211-0.099,0.377-0.268,0.498-0.506c-0.026-0.219-0.08-0.361-0.162-0.426c-0.083-0.064-0.1-0.211-0.053-0.44
		c0.464-1.098,0.895-2.321,1.292-3.67c0.397-1.351,0.825-2.593,1.286-3.726c0.46-1.134,1.064-2.156,1.812-3.062
		c0.747-0.908,1.781-1.44,3.102-1.599c0.367-0.043,0.726,0.007,1.078,0.151c0.351,0.145,0.74,0.117,1.162-0.082
		c0.126,0.43,0.419,0.86,0.88,1.289c0.461,0.428,0.864,0.846,1.21,1.251c0.027,0.22,0.11,0.451,0.251,0.695
		c0.14,0.244,0.232,0.548,0.277,0.915c0.166,1.395-0.174,3.221-1.021,5.48c-0.847,2.259-1.56,4.39-2.139,6.394
		c-0.327,1.005-0.697,2.111-1.111,3.314c-0.414,1.202-0.781,2.344-1.099,3.423c-0.309,1.154-0.703,2.372-1.182,3.658
		c-0.479,1.284-0.929,2.66-1.35,4.123l0.066,0.55c0.026,0.22,0.13,0.469,0.312,0.743c-0.362,0.715-0.588,1.466-0.679,2.259
		c-0.092,0.791-0.236,1.609-0.433,2.45l0.092,0.771l0.22-0.026c3.169-4.619,6.161-9.014,8.975-13.182
		c2.814-4.168,5.096-8.588,6.845-13.261c0.28-0.779,0.652-1.715,1.115-2.812c0.465-1.098,0.942-2.085,1.433-2.961
		c0.246,0.193,0.543,0.345,0.89,0.452c0.348,0.107,0.686,0.289,1.015,0.547c0.22-0.026,0.281-0.144,0.18-0.355
		c-0.099-0.213-0.157-0.391-0.175-0.537c0.237,0.12,0.424,0.283,0.561,0.491c0.136,0.208,0.388,0.288,0.755,0.244
		c0.292-0.034,0.359-0.098,0.2-0.192c-0.159-0.092-0.094-0.156,0.201-0.19c0.147-0.018,0.491,0.219,1.034,0.713
		c0.542,0.495,1.345,0.826,2.407,0.997c0.428,0.47,0.862,1.143,1.301,2.021c0.44,0.878,0.686,1.537,0.739,1.977
		c0.026,0.221-0.191,0.898-0.651,2.032c-0.461,1.134-0.789,2.121-0.985,2.964c-0.374,1.235-0.696,2.594-0.966,4.077
		c-0.269,1.484-0.468,2.939-0.595,4.368l-0.084,0.233c-0.203,0.173-0.295,0.333-0.278,0.479c-0.081,1.2-0.124,2.545-0.133,4.034
		c-0.008,1.49,0.014,2.455,0.066,2.894c0.062,0.515,0.358,0.813,0.89,0.899c0.237,0.121,0.502,0.164,0.796,0.129
		c0.367-0.043,1.351-0.367,2.954-0.968c1.602-0.599,2.863-1.103,3.782-1.51c1.066-0.425,2.106-1.052,3.124-1.881
		c1.018-0.828,2.004-1.597,2.961-2.307l0.849,0.569C232.784,179.374,232.258,179.958,231.547,180.86z"/>
	<path fill="#FEDB29" d="M261.047,180.187c-0.162,0.503-0.492,0.858-0.988,1.067c0.009,0.074,0.064,0.217,0.163,0.427
		c0.56-0.289,1.085-0.576,1.572-0.857c-0.782,0.316-0.848,0.697-0.199,1.14c-0.552,0.363-0.977,1.01-1.276,1.938
		c-0.299,0.928-0.04,1.381,0.775,1.357c-0.412,0.274-0.697,0.699-0.851,1.275c-0.155,0.577-0.292,0.983-0.412,1.221
		c-0.535,0.51-1.197,1.036-1.988,1.577c-0.791,0.541-1.449,1.102-1.976,1.687c-0.332,0.337-0.689,0.771-1.073,1.299
		c-0.383,0.531-0.859,0.904-1.428,1.119c-0.488,0.282-1.05,0.553-1.689,0.816c-0.638,0.262-1.242,0.502-1.811,0.719l-0.739-0.583
		c-0.599,0.594-1.052,0.851-1.358,0.778c-0.306-0.076-0.644-0.092-1.01-0.047c-0.44,0.052-0.597,0.146-0.47,0.28
		c0.128,0.133,0.008,0.221-0.359,0.266c-0.219,0.026-0.869-0.119-1.949-0.437c-1.08-0.318-1.885-0.52-2.416-0.604
		c-1.84-0.451-3.508-1.331-5.003-2.64c-1.496-1.31-2.794-2.829-3.893-4.558c-1.099-1.729-1.918-3.455-2.459-5.176
		c-0.54-1.723-0.894-3.28-1.06-4.674c-0.543-4.549-0.555-8.863-0.037-12.943s1.049-8.199,1.595-12.356
		c0.012-0.523,0.159-1.005,0.441-1.448c0.283-0.443,0.438-0.852,0.468-1.227c0.072-1.274,0.19-2.776,0.355-4.507
		c0.165-1.731,0.376-3.393,0.633-4.987c0.256-1.593,0.663-3.632,1.223-6.117c0.56-2.485,1.155-5.143,1.785-7.97
		c0.158-0.54,0.426-1.094,0.806-1.659c0.378-0.568,0.606-1.153,0.683-1.756c0.414-2.134,0.928-3.757,1.54-4.872
		c0.611-1.114,0.801-2.327,0.57-3.64c0.147-0.017,0.345-0.078,0.593-0.182c0.248-0.103,0.519-0.172,0.812-0.208
		c0.367-0.044,0.792,0.091,1.276,0.406c0.484,0.314,0.987,0.477,1.51,0.489c0.147-0.018,0.216-0.063,0.207-0.136l0.33-0.039
		l0.551-0.066c0.281,0.487,0.628,1.059,1.041,1.718c0.413,0.658,0.724,1.234,0.932,1.73c0.264,0.341,0.397,0.827,0.398,1.459
		c0.001,0.633,0.133,1.119,0.397,1.459l-6.608,36.283c-0.365,1.308-0.689,2.65-0.972,4.022c-0.283,1.373-0.46,2.697-0.531,3.971
		c-0.115,0.906-0.214,2.109-0.295,3.607c-0.082,1.498-0.179,3.016-0.293,4.555c-0.114,1.54-0.159,3.033-0.135,4.481
		c0.024,1.448,0.085,2.576,0.181,3.383c0.034,0.293,0.133,0.969,0.297,2.03c0.163,1.059,0.322,1.915,0.473,2.566
		c0.108,0.284,0.311,0.577,0.606,0.876c0.297,0.299,0.568,0.546,0.814,0.739c1.024,0.474,1.939,0.662,2.746,0.566
		c0.441-0.052,0.723-0.179,0.848-0.381c0.125-0.2,0.298-0.314,0.518-0.34c0.367-0.044,0.649-0.023,0.846,0.067
		c0.196,0.087,0.514,0.104,0.955,0.052c0.22-0.027,0.574-0.18,1.061-0.461c0.487-0.283,1.365-0.722,2.633-1.319
		c0.267-0.255,0.516-0.509,0.746-0.759c0.231-0.251,0.456-0.39,0.676-0.416c0.44-0.052,0.63-0.019,0.57,0.1
		c-0.06,0.119,0.093,0.157,0.46,0.112c0.293-0.034,0.855-0.474,1.684-1.317c0.83-0.844,1.829-1.669,2.997-2.478
		c-0.203,0.172-0.176,0.392,0.079,0.66c0.056-0.156,0.077-0.288,0.064-0.399c-0.013-0.109,0.127-0.183,0.42-0.218
		c0.367-0.044,0.951-0.299,1.75-0.767c0.8-0.468,1.439-0.879,1.918-1.233C261.449,179.19,261.211,179.685,261.047,180.187z"/>
	<path fill="#FEDB29" d="M304.16,173.869c-0.479,0.355-0.77,0.725-0.872,1.109c-0.527,0.584-0.612,1.114-0.257,1.594
		c-0.379,0.566-0.914,1.225-1.605,1.978c-0.692,0.752-1.406,1.47-2.143,2.153c0.009,0.074,0.136,0.207,0.383,0.402
		c0.246,0.193,0.443,0.282,0.589,0.264c-0.578,0.144-1.189,0.476-1.833,1l-1.933,1.57c-0.645,0.523-1.223,0.982-1.733,1.379
		c-0.511,0.396-0.876,0.607-1.097,0.634l-4.622,0.551c-1.099,0.132-2.239-0.217-3.417-1.043c-1.177-0.827-2.222-1.782-3.132-2.863
		c-0.91-1.082-1.669-2.146-2.278-3.189c-0.608-1.042-0.921-1.638-0.939-1.785c-0.079-0.66-0.198-1.501-0.356-2.524
		c-0.159-1.023-0.374-2.04-0.644-3.049c-0.465,1.098-0.955,2.123-1.474,3.079c-0.519,0.954-1.042,2.021-1.571,3.2
		c-0.242,0.475-0.682,1.31-1.32,2.502c-0.64,1.192-1.387,2.417-2.241,3.671c-0.855,1.256-1.761,2.388-2.72,3.395
		c-0.96,1.007-1.842,1.559-2.649,1.656c-0.293,0.034-0.67,0.155-1.13,0.358c-0.459,0.203-0.836,0.322-1.129,0.357
		c-1.834,0.219-3.246-0.078-4.236-0.889c-0.99-0.814-2.05-1.598-3.183-2.356c-0.125-0.432-0.361-0.998-0.705-1.702
		c-0.345-0.703-0.535-1.202-0.569-1.495c-0.193-1.613,0.034-3.76,0.682-6.443c0.647-2.681,1.493-5.406,2.54-8.172
		c1.047-2.766,2.148-5.39,3.302-7.872c1.155-2.482,2.135-4.403,2.94-5.764c0.305-0.558,0.864-1.331,1.676-2.32
		c0.811-0.991,1.553-1.787,2.227-2.388c0.486-0.281,0.972-0.747,1.451-1.4c0.48-0.654,0.951-1.229,1.413-1.732
		c0.128-0.163,0.146-0.334,0.05-0.508c-0.095-0.174-0.078-0.344,0.05-0.508c0.488-0.282,0.915-0.445,1.282-0.488
		c0.367-0.044,0.684-0.193,0.951-0.447c0.543-0.439,0.922-1.004,1.137-1.699l0.881-0.105c0.812,0.573,1.476,0.829,1.988,0.768
		c0.294-0.035,0.592-0.034,0.894,0.004s0.6,0.04,0.894,0.005c0.573-0.813,0.8-1.398,0.683-1.755
		c-0.117-0.357,0.192-0.581,0.925-0.668c0.367-0.044,0.549,0.083,0.547,0.381c-0.001,0.298,0.181,0.425,0.548,0.382
		c0.44-0.053,0.58-0.127,0.42-0.219c-0.159-0.093-0.094-0.157,0.2-0.191c0.66-0.08,1.551,0.056,2.672,0.407
		c1.12,0.349,1.931,0.755,2.432,1.217c0.182,0.276,0.4,0.696,0.654,1.262c0.253,0.563,0.284,0.969,0.089,1.216
		c0.027,0.22,0.084,0.231,0.172,0.036c0.088-0.197,0.158-0.076,0.211,0.365c0.027,0.219-0.018,0.783-0.133,1.69
		c-0.115,0.906-0.302,1.989-0.561,3.248c-0.259,1.258-0.473,2.586-0.641,3.982c-0.168,1.398-0.301,2.622-0.399,3.676
		c-0.127,1.429-0.237,3.152-0.332,5.173c-0.093,2.021-0.145,3.925-0.156,5.712c-0.01,1.787,0.009,3.347,0.057,4.68
		c0.047,1.334,0.08,2.075,0.097,2.222c0.034,0.292,0.151,0.8,0.348,1.52c0.198,0.721,0.327,1.339,0.389,1.853
		c0.613,0.149,1.205,0.115,1.774-0.101c0.57-0.217,1.074-0.35,1.514-0.404c0.441-0.052,1.359-0.46,2.757-1.223
		c1.397-0.761,2.895-1.61,4.495-2.544c1.6-0.935,3.057-1.816,4.372-2.644c1.315-0.826,2.042-1.285,2.179-1.376
		C304.925,173.109,304.638,173.516,304.16,173.869z M275.63,157.408c-0.246-0.196-0.328-0.409-0.243-0.642
		c0.084-0.233,0.116-0.423,0.098-0.57c-1.571,2.42-3.016,5.122-4.334,8.106c-1.318,2.985-2.484,5.842-3.498,8.568l0.752,0.691
		c1.507-2.339,2.86-5.03,4.059-8.074c1.199-3.046,2.448-5.986,3.747-8.82L275.63,157.408z"/>
	<path fill="#FEDB29" d="M364.38,152.844c-0.35,2.05-0.937,4.148-1.76,6.293c-0.824,2.144-1.853,4.277-3.088,6.396
		c-1.235,2.119-2.588,4.196-4.055,6.232c-0.453,0.575-1.029,1.201-1.729,1.88c-0.7,0.679-1.46,1.328-2.279,1.946
		c-0.819,0.619-1.667,1.148-2.546,1.588c-0.877,0.44-1.642,0.735-2.293,0.889l-2.256,0.269c-0.404,0.048-1.492-0.195-3.267-0.726
		c-0.532-0.086-1.164-0.402-1.9-0.946c-0.734-0.545-1.51-0.805-2.325-0.783c-0.346-0.406-0.733-0.844-1.162-1.312
		c-0.428-0.471-0.783-0.949-1.064-1.436c-0.387-1.368-0.799-2.955-1.238-4.762c-0.438-1.809-0.718-2.892-0.834-3.249
		c-0.249-1.46-0.357-2.674-0.324-3.645c0.033-0.972,0.146-1.897,0.339-2.775c0.193-0.88,0.393-1.853,0.6-2.92
		c0.208-1.065,0.444-2.358,0.71-3.879c0.193-0.246,0.373-0.454,0.539-0.622c0.165-0.169,0.277-0.331,0.333-0.486
		c0.27-0.85,0.446-1.876,0.526-3.076c-1.385,0.239-2.936,0.649-4.654,1.225c-1.717,0.577-2.754,0.924-3.112,1.041
		c-0.22,0.027-0.619,0.111-1.197,0.256c-0.578,0.143-1.281,0.337-2.107,0.585c-0.826,0.247-1.709,0.483-2.65,0.707
		c-0.94,0.224-1.736,0.412-2.388,0.564c-0.094,0.458-0.424,0.813-0.989,1.068c-0.565,0.253-1.128,0.525-1.688,0.814
		c-0.709,2.169-1.072,4.426-1.09,6.772c-0.017,2.345-0.092,4.531-0.221,6.556c0.034,0.294-0.099,0.57-0.404,0.829
		c-0.304,0.261-0.585,0.554-0.844,0.883c0.131,1.1,0.184,2.322,0.158,3.664c-0.026,1.343-0.025,2.59,0,3.739
		c0.026,1.151,0.112,2.181,0.258,3.095c0.147,0.912,0.461,1.526,0.945,1.841c-0.672,0.601-0.989,1.215-0.952,1.843
		s-0.088,1.294-0.375,1.999l-1.022,0.791c-0.342,0.263-0.754,0.536-1.242,0.818c-0.311-0.112-0.717-0.398-1.219-0.86
		c-0.502-0.461-0.857-0.641-1.069-0.541c-0.367,0.044-0.454,0.092-0.262,0.144c0.193,0.051,0.109,0.135-0.249,0.253
		c-0.514,0.061-0.968-0.313-1.361-1.121c-0.394-0.809-0.668-1.539-0.82-2.191c-0.091-0.138-0.225-0.326-0.403-0.567
		c-0.177-0.238-0.283-0.505-0.319-0.798c-0.175-1.467-0.328-2.603-0.462-3.404c-0.133-0.803-0.244-1.422-0.333-1.858
		c-0.09-0.435-0.159-0.706-0.21-0.813c-0.049-0.105-0.079-0.194-0.087-0.268c-0.029-1.485-0.006-3.162,0.069-5.031
		c0.074-1.87,0.149-3.59,0.221-5.161c0.073-1.571,0.12-3.047,0.141-4.426c0.022-1.379,0.02-2.179-0.007-2.399l-0.241-1.088
		c-1.173,0.14-2.601,0.496-4.281,1.069c-1.681,0.573-3.209,1.015-4.586,1.328l-0.241-1.087c-0.034-0.294-0.231-0.382-0.59-0.264
		c-0.357,0.116-0.683,0.192-0.977,0.227c-0.557-0.306-1.194-0.806-1.91-1.502s-1.095-1.227-1.138-1.595
		c-0.018-0.147,0.121-0.386,0.416-0.72c0.295-0.333,0.118-0.721-0.531-1.163c0.672-0.601,1.454-1.234,2.341-1.899
		c0.889-0.664,1.751-1.231,2.588-1.704c0.505-0.134,1.229-0.295,2.174-0.481c0.946-0.188,1.845-0.445,2.699-0.77
		c0.495-0.208,1.038-0.495,1.627-0.863c0.588-0.368,1.061-0.61,1.419-0.727c0.44-0.052,0.592-0.033,0.454,0.057
		c-0.139,0.091-0.024,0.114,0.344,0.071c0.587-0.07,0.959-0.375,1.118-0.914c0.171-1.063,0.281-2.172,0.328-3.333
		c0.047-1.159,0.129-2.19,0.244-3.098c0.15-0.614,0.344-1.492,0.578-2.637c0.236-1.144,0.52-2.35,0.852-3.616
		c0.333-1.268,0.624-2.567,0.874-3.9c0.25-1.332,0.526-2.611,0.826-3.837c0.047-0.23,0.024-0.58-0.07-1.052s-0.117-0.824-0.07-1.052
		c0.533-1.775,0.95-3.424,1.251-4.948c0.301-1.525,0.786-2.922,1.453-4.193c0.13-0.162,0.216-0.378,0.258-0.644
		c0.043-0.266,0.165-0.484,0.368-0.658c0.293-0.035,0.553-0.197,0.78-0.483l0.726-0.924c0.086-0.531,0.042-1.047-0.128-1.547
		c-0.172-0.501-0.174-0.983-0.006-1.451l1.417-0.28c0.238,0.121,0.401,0.399,0.49,0.834c0.089,0.437,0.192,0.834,0.309,1.191
		c0.238,0.12,0.391,0.158,0.46,0.113c0.069-0.046,0.19,0.032,0.363,0.235c0.194-0.247,0.26-0.477,0.197-0.692
		c-0.063-0.216-0.007-0.521,0.169-0.913c0.018,0.147,0.161,0.409,0.429,0.785c0.268,0.377,0.586,0.545,0.953,0.501
		c0.44-0.052,0.6-0.109,0.482-0.17c-0.119-0.06-0.069-0.102,0.152-0.129l0.504,3.288c0.026,0.22,0.14,0.394,0.341,0.518
		s0.323,0.371,0.367,0.737c0.035,0.294-0.038,1.084-0.22,2.37c-0.181,1.287-0.403,2.392-0.664,3.316
		c-0.047,0.229-0.044,0.563,0.008,1.003c0.053,0.441,0.028,0.853-0.076,1.237c-0.341,2.125-0.744,4.516-1.208,7.176
		c-0.465,2.661-0.871,5.016-1.222,7.066l-0.098,0.124c0.018,0.147,0.069,0.253,0.151,0.317l0.705-0.642
		c-0.124,0.833-0.207,1.699-0.248,2.597c-0.042,0.898-0.267,1.818-0.676,2.76c0.238,0.12,0.38,0.215,0.424,0.283
		c0.046,0.07,0.152,0.169,0.315,0.298l21.215-5.546c0.44-0.052,0.6,0.041,0.479,0.279c-0.12,0.236,0.003,0.335,0.37,0.29
		c0.293-0.034,0.54-0.139,0.743-0.313c0.203-0.173,0.488-0.281,0.854-0.325c1.093-0.205,2.202,0.054,3.33,0.775
		c1.128,0.722,2.197,1.579,3.209,2.575l0.519,0.608c0.268-0.255,0.528-0.566,0.782-0.931c0.254-0.364,0.589-0.684,1.002-0.956
		l-0.013-0.111c-0.027-0.22-0.116-0.357-0.273-0.412c0.32,0.184,0.708,0.157,1.163-0.084c0.455-0.239,0.911-0.313,1.369-0.219
		c1.2,0.079,2.379,0.293,3.536,0.638c1.158,0.346,2.203,0.686,3.136,1.021c1.378,0.952,2.486,2.14,3.327,3.565
		c0.84,1.425,1.37,2.757,1.593,3.995C364.764,148.892,364.73,150.793,364.38,152.844z M353.097,147.158
		c-0.557-0.306-0.775-0.577-0.655-0.816c-0.237-0.12-0.592-0.282-1.062-0.487c-0.471-0.204-0.862-0.361-1.173-0.472
		c-0.197,0.842-0.695,1.348-1.493,1.517c-0.367,0.043-0.554,0.031-0.563-0.044l-0.027-0.219c-0.853,3.45-1.73,7.013-2.631,10.694
		c-0.9,3.679-1.51,6.99-1.828,9.929c0.329,0.258,0.713,0.361,1.153,0.308c1.171-1.405,2.327-2.789,3.467-4.152
		c1.14-1.364,2.116-2.69,2.93-3.978c0.387-0.492,0.633-1.08,0.738-1.763c0.104-0.681,0.204-1.251,0.298-1.709
		c0.055-0.157,0.197-0.527,0.425-1.111c0.227-0.586,0.426-1.26,0.596-2.025c0.169-0.763,0.35-1.586,0.543-2.464
		c0.192-0.88,0.254-1.611,0.183-2.199C353.956,147.8,353.655,147.463,353.097,147.158z"/>
	<path fill="#FEDB29" d="M399.052,140.781c-0.498,0.506-0.606,1.003-0.325,1.49c-0.587,0.07-1.254,0.094-2,0.071
		c-0.747-0.022-1.621,0.138-2.621,0.48c-0.117-0.358-0.244-0.789-0.378-1.294c-0.135-0.504-0.32-1.114-0.553-1.831
		c-2.105,1.07-3.923,2.83-5.453,5.283c-1.531,2.452-2.865,4.824-4.006,7.119c-0.043-0.367-0.212-0.533-0.505-0.497
		c-0.288,0.704-0.309,1.153-0.063,1.346c-0.147,0.018-0.252,0.068-0.317,0.15l-0.278,0.479c-0.056,0.156-0.004,0.281,0.156,0.372
		c0.16,0.094,0.254,0.249,0.28,0.47c-0.147,0.018-0.252,0.068-0.317,0.149c-0.065,0.083-0.207,0.137-0.427,0.163l-0.11,0.013
		c-0.22,0.027-0.321,0.113-0.303,0.26c-0.121,0.237-0.064,0.398,0.169,0.482c0.232,0.083,0.353,0.162,0.362,0.235
		c-0.511,1.326-1.229,2.788-2.155,4.387c0.026,0.22,0.101,0.378,0.224,0.475s0.152,0.186,0.088,0.268
		c-0.159,0.541-0.384,0.994-0.675,1.364l-0.92,1.171c-0.249,0.402-0.361,0.862-0.338,1.379c0.026,0.517-0.046,1.01-0.214,1.477
		c-0.559,1.554-0.992,3.225-1.3,5.01c-0.307,1.786-0.112,3.418,0.585,4.897c-0.608,0.519-1.279,0.822-2.012,0.91
		c-0.22,0.027-0.677-0.069-1.373-0.283c-0.695-0.215-1.313-0.402-1.853-0.559c-0.247-0.195-0.399-0.53-0.456-1.007
		c-0.057-0.476-0.369-0.606-0.939-0.39c-0.507-1.13-1.034-2.108-1.578-2.937c-0.545-0.827-0.871-1.681-0.975-2.562
		c-0.018-0.147,0.037-0.617,0.165-1.415c0.128-0.795,0.225-1.7,0.289-2.713c0.067-1.012,0.15-2.028,0.252-3.044
		c0.101-1.016,0.141-1.933,0.118-2.748c0.269-2.115,0.464-4.222,0.585-6.321c0.122-2.098,0.129-4.22,0.022-6.363
		c-0.001-1.266,0.013-2.7,0.045-4.303c0.031-1.603,0.025-3.222-0.022-4.853c0.025-1.045,0.022-2.161-0.008-3.348
		c-0.031-1.187,0.039-2.311,0.211-3.374l1.321-0.158c0.587-0.07,1.359,0.173,2.319,0.728c0.959,0.554,1.629,1.181,2.01,1.881
		c0.39,0.772,0.724,1.549,1.005,2.336c0.28,0.785,0.504,1.576,0.674,2.374c0.143,0.578,0.176,1.17,0.099,1.775
		c-0.077,0.603-0.067,1.309,0.03,2.116c0.206-0.768,0.682-1.606,1.43-2.515c0.747-0.907,1.57-1.804,2.469-2.694
		c0.898-0.888,1.886-1.657,2.962-2.306c1.076-0.649,2.054-1.026,2.934-1.131c1.614-0.192,3.519,0.026,5.715,0.657
		c2.196,0.632,4.009,1.643,5.44,3.035c0.255,0.268,0.482,0.611,0.681,1.036c0.2,0.422,0.471,0.836,0.818,1.241
		C399.878,139.752,399.55,140.275,399.052,140.781z"/>
</g>
</svg>
